<svg xmlns="http://www.w3.org/2000/svg" width="12" height="8.896" viewBox="0 0 12 8.896">
  <g id="Page-1" transform="translate(0.002)">
    <g id="_018---Latte-Art" data-name="018---Latte-Art" transform="translate(-0.002)">
      <path id="Shape" d="M42.817,21.818a.207.207,0,0,1-.1-.387,2.673,2.673,0,0,1,.711-.263c.079-.018.166-.036.253-.055.786-.168,1.765-.376,1.892-1.31a1.671,1.671,0,0,0,.015-.208v-.906a.207.207,0,0,1,.414,0v.906a2.084,2.084,0,0,1-.018.262c-.167,1.224-1.4,1.487-2.216,1.661l-.247.054a2.264,2.264,0,0,0-.6.221A.207.207,0,0,1,42.817,21.818Z" transform="translate(-34.001 -14.657)" fill="#95a5a5"/>
      <path id="Shape-2" data-name="Shape" d="M49.483,15.218v.954c0-1.084-1.157-1.219-2.085-.9h-.008c-.389-.31-.383-.261-.389-.517l.412-.443a.012.012,0,0,0,.008,0C48.345,14,49.483,14.145,49.483,15.218Z" transform="translate(-37.483 -11.236)" fill="#d1d4d1"/>
      <path id="Shape-3" data-name="Shape" d="M10.927,15.24c.006.257,0,.557-.023.881a6.287,6.287,0,0,1-.883,2.919,4.456,4.456,0,0,1-4.057,1.943c-4.568,0-5-3.945-4.963-5.743Z" transform="translate(-0.998 -12.087)" fill="#bdc3c7"/>
      <path id="Shape-4" data-name="Shape" d="M10.931,3.1a.093.093,0,0,1,0,.023s0,.006,0,.01a.023.023,0,0,1,0,.017c-.041,1.69-2.249,3.054-4.963,3.054S1.043,4.843,1,3.153a.023.023,0,0,1,0-.017s0-.006,0-.01A.093.093,0,0,1,1,3.1C1,1.39,3.224,0,5.965,0S10.931,1.39,10.931,3.1Z" transform="translate(-0.999)" fill="#ecf0f1"/>
      <ellipse id="Oval" cx="4.138" cy="2.276" rx="4.138" ry="2.276" transform="translate(0.828 0.828)" fill="#a56a43"/>
      <path id="Shape-5" data-name="Shape" d="M8.345,7.965C5.909,7.965,4,6.875,4,5.483S5.909,3,8.345,3s4.345,1.091,4.345,2.483S10.781,7.965,8.345,7.965Zm0-4.552c-2.131,0-3.931.948-3.931,2.069s1.8,2.069,3.931,2.069,3.931-.948,3.931-2.069S10.476,3.414,8.345,3.414Z" transform="translate(-3.379 -2.379)" fill="#bdc3c7"/>
      <path id="Shape-6" data-name="Shape" d="M12.9,34.406A4.151,4.151,0,0,1,9.8,33.3a.207.207,0,1,1,.3-.29,3.76,3.76,0,0,0,2.8.983.207.207,0,1,1,0,.414Z" transform="translate(-7.931 -26.13)" fill="#fff"/>
      <path id="Shape-7" data-name="Shape" d="M17.758,8.654a.207.207,0,0,0-.207.207c0,.526-.833.975-1.862,1.029V9.472A1.624,1.624,0,0,0,16.9,8.965a.2.2,0,0,0-.071-.27.214.214,0,0,0-.285.06,1.4,1.4,0,0,1-.851.3V8.6c.82-.265,1.241-.593,1.241-.978,0-.354-.356-.621-.828-.621a1.3,1.3,0,0,0-.621.146A1.3,1.3,0,0,0,14.862,7c-.472,0-.828.267-.828.621,0,.385.421.713,1.241.978v.461a1.409,1.409,0,0,1-.849-.3.207.207,0,1,0-.358.207,1.624,1.624,0,0,0,1.208.507V9.89c-1.029-.054-1.862-.5-1.862-1.029a.207.207,0,1,0-.414,0c0,.812,1.091,1.448,2.483,1.448s2.483-.636,2.483-1.448A.207.207,0,0,0,17.758,8.654Z" transform="translate(-10.517 -5.551)" fill="#fdd7ad"/>
    </g>
  </g>
</svg>
