<svg xmlns="http://www.w3.org/2000/svg" width="12" height="12" viewBox="0 0 12 12">
  <g id="chow_mein" data-name="chow mein" transform="translate(-5.143 -4.678)">
    <circle id="Ellipse_4" data-name="Ellipse 4" cx="6" cy="6" r="6" transform="translate(5.143 4.678)" fill="#ffe9cc"/>
    <circle id="Ellipse_5" data-name="Ellipse 5" cx="5.126" cy="5.126" r="5.126" transform="translate(6.028 5.563)" fill="#ffd59e"/>
    <circle id="Ellipse_6" data-name="Ellipse 6" cx="4.052" cy="4.052" r="4.052" transform="translate(6.51 6.291)" fill="#c45c00"/>
    <path id="Path_9" data-name="Path 9" d="M9.654,23.042a3.17,3.17,0,0,1,2.325-.8,1.16,1.16,0,0,1,.9,1.857s-.16-.019-.245-.283-.347-.835-.867-.833a3.252,3.252,0,0,0-2.212.992,2.363,2.363,0,0,1,.1-.936Z" transform="translate(-3.435 -13.693)" fill="#c98019"/>
    <path id="Path_10" data-name="Path 10" d="M24.547,19.068s1.591-1.046,2.624.076a5.615,5.615,0,0,0,.74,1.043c.3.271,1.074.5,1.03,1.442s-.481,1.25-.726,1.271-1.634-.181-1.947.258-.165,1.5-.563,2-2.262-.205-1.723-1.578a2.467,2.467,0,0,0-.553-2.51c-.172-.367-.623-1.287.608-1.718s.956.471.631.579-.949.18-.829.835.915.951.86,1.907-.45,1.2-.262,1.58.829.733.967.317-.027-1.632.8-2.121,1.734.063,2-.2a.929.929,0,0,0-.309-1.311,4.056,4.056,0,0,1-1.168-1.372c-.263-.474-1.191-.465-1.995.018S23.818,19.508,24.547,19.068Z" transform="translate(-14.103 -10.89)" fill="#eb9800"/>
    <path id="Path_11" data-name="Path 11" d="M19.589,11.579a1.189,1.189,0,0,1,.048-1.536c.68-.749,2.831-.2,2.628.977s.052,1.141.373,1.353.88.167,1.308.427a.943.943,0,0,1,.2,1.541,1.9,1.9,0,0,1-2.43.537c-.924-.45-1.592-.8-2.052.418s-.691,2.125-1.373,2.181-.843-.189-.573-.494.57.009.836-.392a12.7,12.7,0,0,1,.857-1.854c.6-.872,1.437-.778,2.266-.323a1.319,1.319,0,0,0,1.838-.444c.34-.513.221-.892-1.182-1.036a1.125,1.125,0,0,1-.831-1.218c.157-.933-.112-1.434-.7-1.453s-1.065.46-.8,1.324S19.589,11.579,19.589,11.579Z" transform="translate(-9.722 -3.921)" fill="#d68b00"/>
    <path id="Path_12" data-name="Path 12" d="M22.925,19.123a1.735,1.735,0,0,0-.721-1.768c-.973-.62-1.849.391-2.3,1.315s-.058,1.76-.617,2.152-1.542-.075-2.148.008-2.119,1.042-.2,2.7,4.191-.2,4.488-.651.391-.94.779-1.283-.354-.442-.545-.222a5.015,5.015,0,0,0-.68,1.1,2.978,2.978,0,0,1-2.162,1.037c-.816.014-1.943-.409-2.1-1.363s1.23-.639,1.535-.507,2.121-.141,2.121-1.709.963-2.083,1.609-1.979.41,1.332.224,1.508a1.437,1.437,0,0,1-2.017.05l-.2.539a1.862,1.862,0,0,0,1.789.538A2.075,2.075,0,0,0,22.925,19.123Z" transform="translate(-8.477 -9.749)" fill="#ebba1d"/>
    <path id="Path_13" data-name="Path 13" d="M20.1,19.141a1.678,1.678,0,0,1-.261-2.455c1.083-1.48,3.087-1.243,3.214-.571s-.347,1.309.219,2.151,1.723.742,2.214,1.984-1.578,2.777-2.87,1.594-.215-1.975.132-2.16.488.15.3.438-1.013.9.15,1.551,2.325-.744,1.627-1.466-.87-.437-1.745-1.362a2.195,2.195,0,0,1-.531-2.1.732.732,0,0,0-1.114-.564c-.707.311-2.318,1.6-.806,2.891C20.627,19.075,20.672,19.347,20.1,19.141Z" transform="translate(-11.145 -8.518)" fill="#ffca1f"/>
    <path id="Path_14" data-name="Path 14" d="M39.94,24.907a1.635,1.635,0,0,0-2.286.771c-.9,1.571,1.844,2.511,2.033,1.806s-.06-.432-.4-.377-1.535.091-1.327-1.2c.181-1.12,1.561-.909,1.867-.631a.183.183,0,0,0,.289-.039C40.16,25.156,40.136,25.046,39.94,24.907Z" transform="translate(-25.243 -15.635)" fill="#ffd85e"/>
    <path id="Path_15" data-name="Path 15" d="M32.014,32.967s.906-.507.775-1.3-.263-.623-.241-.471a1.316,1.316,0,0,1-.08,1.088,1.826,1.826,0,0,1-.578.586C31.574,33.109,31.95,33.011,32.014,32.967Z" transform="translate(-20.786 -20.602)" fill="#ffe38a"/>
    <path id="Path_16" data-name="Path 16" d="M31.12,16.105s.708-.1.865.365.061.2-.156.053S30.664,16.272,31.12,16.105Z" transform="translate(-20.187 -8.915)" fill="#ffd85e"/>
    <circle id="Ellipse_7" data-name="Ellipse 7" cx="3.579" cy="3.579" r="3.579" transform="translate(8.485 7.991)" fill="#d96600"/>
    <path id="Path_17" data-name="Path 17" d="M39.1,41.771a2.8,2.8,0,0,0,.2-2.161,1.024,1.024,0,0,0-1.78-.386s.05.134.294.152.789.125.895.571a2.874,2.874,0,0,1-.392,2.1A2.087,2.087,0,0,0,39.1,41.771Z" transform="translate(-25.278 -26.677)" fill="#c98019"/>
    <path id="Path_18" data-name="Path 18" d="M25.573,22.811s.568-1.583-.61-2.236a4.964,4.964,0,0,1-1.049-.419c-.3-.206-.654-.817-1.451-.584s-.972.671-.941.886.494,1.364.183,1.724-1.257.454-1.6.9.645,1.9,1.712,1.152a2.178,2.178,0,0,1,2.269-.046c.351.071,1.236.268,1.35-.878s-.6-.723-.628-.422.044.852-.545.885-1.007-.589-1.815-.343-.938.636-1.3.552-.8-.56-.472-.764,1.407-.315,1.654-1.129-.414-1.476-.244-1.757a.821.821,0,0,1,1.189-.007,3.578,3.578,0,0,0,1.42.718c.46.128.646.926.4,1.716S25.347,23.528,25.573,22.811Z" transform="translate(-11.627 -11.588)" fill="#eb9800"/>
    <path id="Path_19" data-name="Path 19" d="M30.782,22.85a1.05,1.05,0,0,0,1.309-.36c.5-.739-.414-2.472-1.384-2.053s-.99.192-1.239-.039-.327-.721-.638-1.034a.833.833,0,0,0-1.365.145,1.677,1.677,0,0,0,.044,2.2c.578.7,1.017,1.2.066,1.848s-1.681,1.034-1.587,1.631.337.685.543.389-.126-.488.163-.8a11.145,11.145,0,0,0,1.414-1.121c.624-.7.37-1.4-.193-2.012a1.165,1.165,0,0,1,0-1.67c.37-.4.719-.375,1.134.8a.993.993,0,0,0,1.218.46c.769-.329,1.255-.2,1.393.3s-.173,1.011-.971.958S30.782,22.85,30.782,22.85Z" transform="translate(-16.268 -11.24)" fill="#d68b00"/>
    <path id="Path_20" data-name="Path 20" d="M24.149,19.473a1.532,1.532,0,0,1,1.667.252c.735.706.048,1.668-.652,2.247s-1.5.415-1.719.976.384,1.308.438,1.847-.455,2.035-2.28.731-.7-3.639-.373-3.988.726-.531.94-.935.452.212.3.422a4.438,4.438,0,0,1-.8.811,2.631,2.631,0,0,0-.442,2.071c.158.7.754,1.583,1.6,1.516s.294-1.188.117-1.422a1.641,1.641,0,0,1,1.027-2.176c1.346-.325,1.589-1.259,1.365-1.792s-1.228-.076-1.341.121a1.267,1.267,0,0,0,.375,1.741l-.422.28s-.945-.555-.833-1.425A1.825,1.825,0,0,1,24.149,19.473Z" transform="translate(-12.06 -11.439)" fill="#ebba1d"/>
    <path id="Path_21" data-name="Path 21" d="M24.771,26.993a1.482,1.482,0,0,0,2.162-.285c1.046-1.236.426-2.908-.175-2.877s-1.052.57-1.892.258S23.871,22.764,22.7,22.6s-2.058,1.931-.774,2.795,1.74-.225,1.827-.562-.23-.388-.438-.164-.566,1.057-1.363.194.157-2.151.921-1.7.555.656,1.531,1.215a1.942,1.942,0,0,0,1.911.022.646.646,0,0,1,.715.839c-.12.671-.89,2.32-2.315,1.29C24.718,26.527,24.476,26.544,24.771,26.993Z" transform="translate(-12.613 -13.984)" fill="#ffca1f"/>
    <path id="Path_22" data-name="Path 22" d="M39.812,34.481a1.893,1.893,0,0,1-.87-.636,1.745,1.745,0,0,0-2.327-.565,1.416,1.416,0,0,0-.124,2.565s.309.079-.029-.305a1.032,1.032,0,0,1-.022-1.585,1.292,1.292,0,0,1,1.8-.066c.54.466.794,1.017,1.43,1.156A1.957,1.957,0,0,0,39.812,34.481Z" transform="translate(-23.885 -22.158)" fill="#ffd03b"/>
    <path id="Path_23" data-name="Path 23" d="M26.483,34.907a2.321,2.321,0,0,0,1.578-2.481,1.092,1.092,0,0,0-1.323-.935,2.006,2.006,0,0,1-2.031-.6,1.177,1.177,0,0,0-1.887.158c-.735.865.012,3.559,1.9,3.1s.086,1.141-.212,1.107-.427-.1-.864-.474-1.38-1.527-2.467-1.425c0,0-.1.085.194.39s.626-.132,1.682.9,1.421,1.408,2.613.221.044-1.281-.225-1.236-1.276.344-1.849-.294a1.617,1.617,0,0,1-.166-2.1c.481-.405.783-.263,1.17.2a2.335,2.335,0,0,0,2.154.49c.695-.223,1.225.74.556,1.926s-2.349.86-2.693.819a3.217,3.217,0,0,0-1.757.137.255.255,0,0,0,0,.413.411.411,0,0,0,.295.106c.188-.041.037-.351,2.257-.261a2.78,2.78,0,0,0,.776-.079C26.28,34.969,26.385,34.94,26.483,34.907Z" transform="translate(-12.505 -20.153)" fill="#ffd85e"/>
    <path id="Path_24" data-name="Path 24" d="M28.839,18.492a1.443,1.443,0,0,1-.188,2.122c-1.162,1.1-2.538-1.062-1.973-1.371s.383-.038.406.262.241,1.337,1.306.89c.924-.388.456-1.529.153-1.734a.162.162,0,0,1-.026-.256C28.579,18.355,28.677,18.353,28.839,18.492Z" transform="translate(-16.712 -10.694)" fill="#ffd85e"/>
    <path id="Path_25" data-name="Path 25" d="M28.117,32.057s.247-.883.957-.936.589.1.455.11a1.166,1.166,0,0,0-.918.294,1.615,1.615,0,0,0-.383.618C28.087,32.463,28.092,32.121,28.117,32.057Z" transform="translate(-17.927 -20.637)" fill="#ffe38a"/>
    <path id="Path_26" data-name="Path 26" d="M46.1,29.255s-.059-.629-.493-.667-.181-.012-.013.145S46.05,29.68,46.1,29.255Z" transform="translate(-31.404 -18.656)" fill="#ffd85e"/>
    <path id="Path_27" data-name="Path 27" d="M19.105,12.037a2.144,2.144,0,0,0,.931.789,1.976,1.976,0,0,1,1.241,2.411,1.6,1.6,0,0,1-2.789.818s-.169-.319.344-.049a1.168,1.168,0,0,0,1.75-.4,1.462,1.462,0,0,0-.407-2c-.658-.47-1.33-.6-1.652-1.266A2.207,2.207,0,0,1,19.105,12.037Z" transform="translate(-10.398 -5.746)" fill="#ffd03b"/>
    <path id="Path_28" data-name="Path 28" d="M10.636,16.219a2.627,2.627,0,0,1,2.311-2.4,1.237,1.237,0,0,1,1.381,1.207,2.271,2.271,0,0,0,1.2,2.076,1.333,1.333,0,0,1,.328,2.119c-.756,1.039-3.921.934-3.921-1.262s-1.279.208-1.162.528.226.443.751.825,2.048,1.113,2.224,2.336c0,0-.068.128-.481-.11s-.022-.723-1.442-1.611-1.929-1.189-.938-2.817,1.4-.389,1.42-.081-.039,1.5.815,1.957a1.831,1.831,0,0,0,2.358-.376c.318-.636.081-.932-.532-1.234a2.648,2.648,0,0,1-1.112-2.241c.06-.824-1.14-1.152-2.268-.1s-.322,2.813-.185,3.18a3.641,3.641,0,0,1,.316,1.97.288.288,0,0,1-.455.111.466.466,0,0,1-.2-.3c0-.218.376-.134-.313-2.553a3.159,3.159,0,0,1-.119-.875C10.622,16.459,10.626,16.334,10.636,16.219Z" transform="translate(-4.087 -7.136)" fill="#ffe38c"/>
    <path id="Path_29" data-name="Path 29" d="M26.556,15.254s.367.2.442,1.186a2.208,2.208,0,0,0,1.194,1.8,1.279,1.279,0,0,1,.476,1.837,1.347,1.347,0,0,0-.543-1.778,2.13,2.13,0,0,1-1.236-1.87A2.084,2.084,0,0,0,26.556,15.254Z" transform="translate(-16.719 -8.258)" fill="#fff4d1"/>
    <path id="Path_30" data-name="Path 30" d="M40.872,17.9a1,1,0,0,0-1.2-.378s-.245.145.078.123a1.221,1.221,0,0,1,1.046.3C41.128,18.277,40.917,17.954,40.872,17.9Z" transform="translate(-26.889 -9.972)" fill="#ffd03b"/>
    <path id="Path_31" data-name="Path 31" d="M33.063,31.689a.76.76,0,0,0,.066-.735c-.2-.334-.107-.392,0-.318a.922.922,0,0,1,.287.764,1.3,1.3,0,0,1-.723,1.147C32.25,32.691,32.529,32.279,33.063,31.689Z" transform="translate(-21.34 -20.246)" fill="#fff0c2"/>
    <path id="Path_32" data-name="Path 32" d="M14.1,25.644s.4-.456.668-.334a.783.783,0,0,1,.356.6c.011.111.044.612.066.735s-.134.089-.145-.134,0-1-.312-1.058a.592.592,0,0,0-.59.256C14.065,25.823,14.054,25.711,14.1,25.644Z" transform="translate(-6.972 -16.093)" fill="#fff0c2"/>
    <path id="Path_33" data-name="Path 33" d="M25.3,15.04l-.027.236a.178.178,0,0,0,.246.183l.006,0a.178.178,0,0,0,.037-.307l-.189-.143a.046.046,0,0,0-.073.033Z" transform="translate(-15.716 -8.058)" fill="#fff"/>
    <path id="Path_34" data-name="Path 34" d="M21.732,25.95l-.2.132a.178.178,0,0,0,.02.307l.005,0a.178.178,0,0,0,.257-.17l-.014-.237a.046.046,0,0,0-.072-.034Z" transform="translate(-12.737 -16.603)" fill="#fff"/>
    <path id="Path_35" data-name="Path 35" d="M16.781,39.051l-.2.132a.178.178,0,0,0,.02.307l.005,0a.178.178,0,0,0,.257-.17l-.014-.237a.046.046,0,0,0-.072-.034Z" transform="translate(-8.871 -26.832)" fill="#fff"/>
    <path id="Path_36" data-name="Path 36" d="M43.06,39.355l-.2.132a.178.178,0,0,0,.02.307l.006,0a.178.178,0,0,0,.257-.17l-.014-.237a.046.046,0,0,0-.072-.035Z" transform="translate(-29.39 -27.07)" fill="#fff"/>
    <path id="Path_37" data-name="Path 37" d="M41.473,19.277l-.063.229a.178.178,0,0,0,.216.219l.006,0a.178.178,0,0,0,.084-.3l-.165-.17a.046.046,0,0,0-.078.021Z" transform="translate(-28.312 -11.372)" fill="#fff"/>
    <path id="Path_38" data-name="Path 38" d="M32.558,47.278l-.105.212a.178.178,0,0,0,.17.257h.006a.178.178,0,0,0,.139-.275l-.13-.2a.046.046,0,0,0-.08,0Z" transform="translate(-21.309 -33.241)" fill="#fff"/>
    <path id="Path_39" data-name="Path 39" d="M28.476,34.817l-.164-.171a.178.178,0,0,0-.3.073l0,.006a.178.178,0,0,0,.211.224l.231-.054a.046.046,0,0,0,.023-.077Z" transform="translate(-17.849 -23.356)" fill="#fff"/>
    <path id="Path_40" data-name="Path 40" d="M45.4,29.929l.234-.039a.178.178,0,0,0,.11-.288l0,0a.178.178,0,0,0-.3.048l-.085.221a.046.046,0,0,0,.05.062Z" transform="translate(-31.387 -19.405)" fill="#fff"/>
    <path id="Path_41" data-name="Path 41" d="M47.657,44.146l.105.213a.178.178,0,0,0,.307.022l0-.005a.178.178,0,0,0-.135-.277l-.237-.018a.046.046,0,0,0-.045.065Z" transform="translate(-33.191 -30.765)" fill="#fff"/>
    <path id="Path_42" data-name="Path 42" d="M24.7,48.419l-.2.132a.178.178,0,0,0,.02.307l.005,0a.178.178,0,0,0,.257-.17l-.014-.237a.046.046,0,0,0-.072-.034Z" transform="translate(-15.058 -34.146)" fill="#fff"/>
    <path id="Path_43" data-name="Path 43" d="M15.147,20.878l-.167-.168a.178.178,0,0,0-.3.078l0,.006a.178.178,0,0,0,.216.219l.23-.059a.046.046,0,0,0,.021-.077Z" transform="translate(-7.441 -12.477)" fill="#fff"/>
    <path id="Path_44" data-name="Path 44" d="M40.211,13.254l.237-.007a.178.178,0,0,0,.147-.271l0-.005a.178.178,0,0,0-.308.007l-.114.208a.046.046,0,0,0,.042.068Z" transform="translate(-27.343 -6.408)" fill="#fff"/>
    <path id="Path_45" data-name="Path 45" d="M51.94,24.911l.017.237a.178.178,0,0,0,.277.136l.005,0a.178.178,0,0,0-.019-.307l-.212-.106a.046.046,0,0,0-.067.044Z" transform="translate(-36.538 -15.76)" fill="#fff"/>
    <path id="Path_46" data-name="Path 46" d="M31.713,11.988l.069-.227a.178.178,0,0,0-.209-.226l-.006,0a.178.178,0,0,0-.092.294l.16.175a.046.046,0,0,0,.078-.018Z" transform="translate(-20.523 -5.35)" fill="#fff"/>
    <path id="Path_47" data-name="Path 47" d="M10.689,34.937l-.2.132a.178.178,0,0,0,.02.307l.005,0a.178.178,0,0,0,.257-.17l-.013-.236a.046.046,0,0,0-.072-.036Z" transform="translate(-4.115 -23.619)" fill="#fff"/>
    <path id="Path_48" data-name="Path 48" d="M33.538,26.711l-.2.132a.178.178,0,0,0,.02.307l.005,0a.178.178,0,0,0,.257-.17l-.013-.236a.046.046,0,0,0-.072-.035Z" transform="translate(-21.955 -17.197)" fill="#fff"/>
    <path id="Path_49" data-name="Path 49" d="M14.382,27.015l0,0a.223.223,0,0,0,0,.315l.708.708a.223.223,0,0,0,.315,0l.014-.014a.223.223,0,0,0,0-.317l-.718-.7A.223.223,0,0,0,14.382,27.015Z" transform="translate(-7.16 -17.389)" fill="#f80"/>
    <path id="Path_50" data-name="Path 50" d="M15.064,27.441l0,0a.136.136,0,0,0,0,.192l.433.433a.136.136,0,0,0,.192,0l.008-.008a.136.136,0,0,0,0-.194l-.438-.426a.136.136,0,0,0-.191,0Z" transform="translate(-7.714 -17.741)" fill="#fa0"/>
    <path id="Path_51" data-name="Path 51" d="M19.056,41.031l0,0a.223.223,0,0,0,0,.315l.708.708a.223.223,0,0,0,.315,0l.014-.014a.223.223,0,0,0,0-.317l-.718-.7A.223.223,0,0,0,19.056,41.031Z" transform="translate(-10.809 -28.333)" fill="#ff5900"/>
    <path id="Path_52" data-name="Path 52" d="M19.736,41.457l0,0a.136.136,0,0,0,0,.192l.433.432a.136.136,0,0,0,.192,0l.008-.008a.136.136,0,0,0,0-.194l-.438-.426A.136.136,0,0,0,19.736,41.457Z" transform="translate(-11.362 -28.685)" fill="#f80"/>
    <path id="Path_53" data-name="Path 53" d="M32.52,40.9h0a.223.223,0,0,0-.171.265l.213.978a.223.223,0,0,0,.265.17l.019,0a.223.223,0,0,0,.17-.268l-.227-.975A.223.223,0,0,0,32.52,40.9Z" transform="translate(-21.235 -28.278)" fill="#f80"/>
    <path id="Path_54" data-name="Path 54" d="M33.083,41.508h0a.136.136,0,0,0-.1.162l.13.6a.136.136,0,0,0,.162.1l.011,0a.136.136,0,0,0,.1-.164l-.139-.6A.136.136,0,0,0,33.083,41.508Z" transform="translate(-21.729 -28.754)" fill="#fa0"/>
    <path id="Path_55" data-name="Path 55" d="M41.255,31.494h0a.222.222,0,0,0-.135.285l.334.944a.223.223,0,0,0,.285.136l.018-.007a.223.223,0,0,0,.135-.287l-.348-.939A.223.223,0,0,0,41.255,31.494Z" transform="translate(-28.076 -20.927)" fill="#ff5900"/>
    <path id="Path_56" data-name="Path 56" d="M41.854,32.072h0a.136.136,0,0,0-.083.174l.2.576a.136.136,0,0,0,.174.083l.011,0a.136.136,0,0,0,.082-.175l-.213-.573A.136.136,0,0,0,41.854,32.072Z" transform="translate(-28.59 -21.383)" fill="#f80"/>
    <path id="Path_57" data-name="Path 57" d="M29.264,14.926h0a.223.223,0,0,0-.141.282l.317.949a.223.223,0,0,0,.282.141l.018-.006a.223.223,0,0,0,.14-.285l-.331-.945A.223.223,0,0,0,29.264,14.926Z" transform="translate(-18.711 -7.992)" fill="#f80"/>
    <path id="Path_58" data-name="Path 58" d="M29.86,15.5h0a.136.136,0,0,0-.086.172l.194.58a.136.136,0,0,0,.172.086l.011,0a.136.136,0,0,0,.085-.174l-.2-.577a.136.136,0,0,0-.172-.083Z" transform="translate(-19.224 -8.447)" fill="#fa0"/>
    <path id="Path_59" data-name="Path 59" d="M21.229,28.765a.836.836,0,0,0-.451.351c-.1.234.234.534.5.518,0,0-.084.067.117.134s.3-.234.3-.234a.325.325,0,0,0,.2-.05C22.031,29.417,22.131,28.549,21.229,28.765Z" transform="translate(-12.193 -18.78)" fill="#42ff4c"/>
    <path id="Path_60" data-name="Path 60" d="M22.048,29.136a.6.6,0,0,0-.321.25c-.071.167.167.381.357.369,0,0-.06.048.083.1s.214-.167.214-.167a.233.233,0,0,0,.143-.036C22.619,29.6,22.691,28.981,22.048,29.136Z" transform="translate(-12.938 -19.077)" fill="#21ff2d"/>
    <path id="Path_61" data-name="Path 61" d="M40.227,42.912a.835.835,0,0,0,.569.053c.233-.1.2-.549-.01-.72,0,0,.107.009.006-.177s-.379-.036-.379-.036a.327.327,0,0,0-.18-.1C40.089,41.889,39.421,42.453,40.227,42.912Z" transform="translate(-27.088 -29.085)" fill="#42ff4c"/>
    <path id="Path_62" data-name="Path 62" d="M40.609,43.441a.6.6,0,0,0,.405.038c.166-.073.14-.392-.007-.513,0,0,.076.006,0-.126s-.27-.025-.27-.025a.233.233,0,0,0-.128-.072C40.51,42.712,40.034,43.114,40.609,43.441Z" transform="translate(-27.474 -29.719)" fill="#21ff2d"/>
    <path id="Path_63" data-name="Path 63" d="M35.016,15.74a.835.835,0,0,0-.451.351c-.1.234.234.534.5.518,0,0-.084.066.117.134s.3-.234.3-.234a.327.327,0,0,0,.2-.05C35.817,16.391,35.918,15.523,35.016,15.74Z" transform="translate(-22.958 -8.61)" fill="#42ff4c"/>
    <path id="Path_64" data-name="Path 64" d="M35.835,16.112a.6.6,0,0,0-.321.25c-.071.167.167.381.357.369,0,0-.059.048.083.1s.214-.167.214-.167a.231.231,0,0,0,.143-.036C36.406,16.575,36.478,15.957,35.835,16.112Z" transform="translate(-23.703 -8.908)" fill="#21ff2d"/>
  </g>
</svg>
