<?xml version="1.0" standalone="no"?>
<!DOCTYPE svg PUBLIC "-//W3C//DTD SVG 20010904//EN"
 "http://www.w3.org/TR/2001/REC-SVG-20010904/DTD/svg10.dtd">
<svg version="1.0" xmlns="http://www.w3.org/2000/svg"
 width="2285.000000pt" height="2285.000000pt" viewBox="0 0 2285.000000 2285.000000"
 preserveAspectRatio="xMidYMid meet">
<metadata>
Created by potrace 1.11, written by Peter Selinger 2001-2013
</metadata>
<g transform="translate(0.000000,2285.000000) scale(0.100000,-0.100000)"
fill="#000000" stroke="none">
<path d="M11018 22845 c-1 -1 -68 -6 -148 -9 -80 -4 -172 -9 -205 -11 -232
-17 -424 -33 -470 -40 -35 -5 -94 -12 -180 -20 -33 -4 -71 -8 -85 -10 -14 -2
-79 -11 -145 -20 -66 -9 -158 -23 -205 -31 -47 -8 -101 -17 -120 -20 -285 -42
-886 -178 -1196 -269 -49 -15 -127 -37 -174 -50 -93 -26 -416 -131 -520 -170
-36 -13 -114 -41 -175 -63 -120 -44 -446 -173 -510 -203 -22 -10 -76 -33 -120
-52 -292 -123 -739 -351 -1129 -574 -256 -147 -715 -440 -881 -562 -27 -21
-93 -68 -145 -106 -52 -38 -97 -72 -100 -75 -3 -3 -32 -25 -65 -49 -542 -399
-1241 -1055 -1731 -1626 -197 -230 -393 -473 -509 -633 -33 -45 -82 -113 -110
-151 -27 -38 -57 -79 -65 -91 -8 -12 -22 -32 -31 -44 -56 -75 -379 -570 -379
-581 0 -3 -15 -28 -34 -57 -34 -54 -155 -263 -216 -373 -18 -33 -46 -85 -63
-115 -41 -74 -226 -445 -271 -545 -21 -44 -41 -87 -46 -97 -5 -9 -41 -92 -80
-185 -40 -92 -78 -181 -85 -198 -22 -51 -131 -335 -170 -445 -20 -58 -41 -114
-45 -125 -26 -60 -191 -592 -205 -656 -2 -9 -12 -47 -23 -85 -44 -150 -153
-623 -177 -764 -3 -19 -10 -53 -15 -75 -5 -22 -21 -112 -35 -200 -32 -200 -33
-201 -40 -255 -6 -47 -10 -70 -19 -135 -9 -57 -14 -105 -22 -188 -3 -40 -8
-74 -10 -77 -1 -3 -6 -42 -9 -85 -4 -44 -8 -96 -10 -115 -2 -19 -7 -75 -10
-125 -4 -49 -8 -106 -10 -125 -26 -271 -27 -1155 -1 -1475 3 -33 8 -94 11
-135 3 -41 7 -93 9 -115 2 -22 7 -76 11 -120 7 -78 10 -114 20 -185 2 -19 7
-60 10 -90 3 -30 7 -66 10 -80 3 -14 7 -43 10 -65 7 -60 13 -105 41 -275 33
-205 32 -198 38 -218 3 -9 7 -33 10 -52 14 -86 79 -388 116 -540 18 -69 33
-133 35 -142 36 -170 200 -705 312 -1013 173 -478 431 -1062 623 -1410 15 -27
49 -90 75 -140 27 -49 68 -123 92 -163 24 -41 43 -75 43 -77 0 -2 38 -66 83
-142 277 -458 516 -802 840 -1213 114 -143 305 -373 372 -446 5 -6 44 -49 85
-95 239 -269 634 -659 939 -929 86 -75 372 -313 421 -350 19 -14 50 -39 70
-55 58 -50 197 -154 447 -336 236 -172 679 -453 1003 -636 334 -190 735 -389
1089 -539 491 -210 1012 -395 1436 -509 28 -7 86 -23 130 -35 44 -12 87 -24
95 -26 46 -11 267 -66 280 -69 8 -2 89 -20 180 -40 147 -32 198 -43 290 -59
14 -2 75 -13 135 -24 61 -12 124 -23 140 -26 17 -2 62 -9 100 -16 39 -6 81
-13 95 -15 26 -4 237 -32 300 -40 19 -2 64 -7 100 -11 36 -3 76 -7 90 -9 14
-2 63 -6 110 -10 47 -3 100 -8 119 -10 19 -3 73 -7 120 -11 47 -3 106 -7 131
-9 332 -26 1193 -26 1465 0 22 2 81 6 130 10 50 3 101 8 115 10 14 2 66 6 115
10 50 3 97 8 105 10 8 2 49 7 90 10 41 3 89 8 105 10 59 6 150 17 165 20 9 2
43 6 75 10 33 4 69 9 80 11 30 6 255 44 295 50 19 2 46 7 60 10 14 3 36 8 50
10 122 22 448 89 482 100 10 3 30 8 45 10 62 11 459 116 623 164 284 83 523
163 809 270 90 33 165 59 166 58 1 -2 5 -48 9 -103 3 -55 9 -137 12 -182 4
-54 2 -83 -4 -83 -18 0 -50 -63 -68 -135 -25 -101 -37 -121 -128 -210 -55 -54
-91 -99 -109 -137 -85 -178 -13 -276 228 -313 174 -26 288 23 345 149 35 79
51 95 130 137 62 33 119 81 121 103 8 74 0 113 -43 206 -56 121 -66 150 -72
210 -4 36 -9 79 -11 95 -2 17 -6 55 -9 85 -14 130 -26 248 -31 291 l-6 46 53
20 c84 33 244 108 498 235 295 147 457 236 735 402 121 72 226 132 233 134 6
2 12 8 12 13 0 5 5 9 10 9 23 0 760 507 800 550 3 3 41 32 85 65 44 33 82 63
83 68 2 4 12 12 22 17 17 9 18 7 9 -23 -14 -48 -22 -133 -15 -161 5 -21 19
-29 93 -51 152 -47 236 -66 310 -70 60 -4 78 -1 115 19 52 27 74 33 158 41 36
4 83 8 105 10 107 11 173 148 116 241 -18 29 -74 64 -103 64 -33 0 -155 109
-224 199 -39 52 -79 98 -89 101 -14 5 -7 15 37 54 372 337 796 766 1019 1031
19 22 39 45 45 50 9 8 90 103 153 180 165 201 415 529 512 670 29 44 57 82 60
85 8 7 219 328 296 450 85 136 241 401 345 590 53 96 237 460 290 575 89 190
116 250 143 315 15 36 35 83 44 105 10 22 24 56 31 75 7 19 21 53 31 76 48
109 260 694 274 754 2 8 26 89 54 180 28 91 53 174 55 185 2 11 9 32 15 48 6
15 8 27 6 27 -2 0 0 12 6 26 11 30 77 284 85 328 3 16 7 32 9 36 3 5 16 61 40
175 3 11 9 40 15 65 5 25 12 56 14 70 2 14 18 95 34 180 17 85 33 175 37 200
3 25 8 52 10 60 4 16 4 14 35 230 29 205 28 199 35 265 4 33 8 71 10 85 2 14
7 57 10 95 4 39 8 86 10 105 2 19 6 73 10 120 4 47 8 105 10 130 6 67 15 239
21 375 5 143 5 671 -1 805 -9 210 -16 347 -20 375 -2 17 -7 71 -10 120 -3 50
-7 101 -9 115 -3 14 -7 63 -11 110 -3 47 -8 94 -10 105 -3 11 -7 45 -10 75
-15 143 -22 195 -30 240 -3 14 -7 45 -10 70 -5 36 -42 265 -70 430 -29 170
-139 646 -195 845 -12 42 -23 84 -25 93 -2 9 -15 55 -28 102 -267 901 -598
1672 -1081 2513 -15 27 -41 70 -56 95 -16 26 -43 72 -61 102 -90 155 -381 583
-560 826 -142 192 -509 645 -616 759 -15 17 -64 70 -108 119 -304 339 -851
861 -1155 1103 -8 7 -49 39 -90 73 -41 33 -92 74 -112 91 -132 105 -519 389
-667 488 -170 113 -577 371 -586 371 -3 0 -29 16 -59 35 -30 19 -57 35 -60 35
-3 0 -29 14 -58 31 -29 17 -79 46 -113 64 -33 18 -89 49 -125 69 -183 101
-758 382 -870 424 -14 6 -51 22 -82 36 -31 14 -59 26 -62 26 -4 0 -25 9 -49
19 -23 10 -62 26 -87 36 -25 9 -58 23 -75 30 -16 7 -57 23 -90 35 -33 12 -69
26 -80 30 -11 4 -45 17 -75 28 -30 11 -75 28 -100 37 -70 27 -480 163 -541
179 -30 8 -92 26 -139 40 -283 84 -845 219 -1005 241 -22 4 -48 8 -57 11 -29
8 -141 29 -273 50 -16 2 -41 6 -55 9 -24 4 -50 9 -115 19 -77 12 -114 17 -165
21 -30 3 -62 7 -70 10 -8 2 -44 6 -80 10 -36 4 -76 8 -90 10 -25 3 -105 12
-190 20 -25 3 -81 8 -125 11 -44 4 -93 8 -110 10 -16 1 -86 6 -155 10 -69 4
-143 9 -165 11 -49 5 -972 13 -977 8z m797 -4439 c113 -6 382 -30 470 -41
1136 -145 2123 -510 3050 -1128 179 -120 543 -393 595 -447 3 -3 37 -32 75
-64 350 -298 722 -696 1009 -1080 441 -591 768 -1211 1000 -1897 116 -346 232
-822 270 -1109 4 -25 11 -74 16 -110 5 -36 16 -128 24 -205 14 -129 17 -175
31 -400 11 -171 6 -581 -10 -790 -11 -153 -47 -473 -65 -575 -5 -30 -12 -71
-15 -90 -47 -284 -149 -685 -257 -1005 -68 -202 -225 -595 -237 -595 -4 0 -33
82 -66 182 -65 195 -77 215 -180 285 -89 60 -422 206 -672 294 -40 14 -64 28
-64 38 -7 71 -4 143 5 154 21 25 115 98 188 146 171 112 303 276 381 471 14
36 28 76 31 90 29 127 36 180 37 275 0 178 -38 337 -121 495 l-18 35 66 0
c160 1 285 131 284 296 -1 159 -114 284 -269 297 -110 9 -197 -31 -260 -120
-33 -46 -38 -57 -52 -128 l-7 -35 -13 48 c-39 136 49 301 186 349 46 16 46 16
16 17 -51 1 -135 -35 -180 -78 -66 -64 -88 -120 -88 -228 0 -59 -3 -89 -10
-84 -5 5 -37 23 -70 41 -194 105 -439 140 -650 93 -11 -2 -33 -6 -48 -9 -77
-14 -267 -103 -343 -161 -37 -28 -44 -29 -44 -5 0 40 -66 132 -120 166 -76 49
-190 63 -262 33 l-38 -16 0 1663 c0 1322 -3 1665 -12 1668 -23 8 -1401 2
-1468 -6 -115 -14 -209 -72 -272 -168 -20 -29 -111 -201 -203 -383 -92 -181
-238 -469 -325 -640 -87 -170 -231 -454 -320 -630 -89 -176 -222 -437 -295
-580 -73 -143 -217 -426 -320 -630 -103 -203 -240 -471 -303 -595 -63 -124
-145 -284 -182 -357 -64 -126 -188 -409 -246 -560 -15 -40 -30 -73 -33 -73 -4
0 -17 28 -30 63 -96 248 -205 476 -666 1382 -95 187 -248 489 -340 670 -92
182 -245 483 -340 670 -95 187 -257 507 -360 710 -505 996 -506 999 -590 1057
-22 15 -69 37 -105 49 -64 21 -78 22 -795 23 -401 2 -735 1 -741 -1 -9 -3 -12
-912 -12 -3539 -1 -3311 0 -3534 16 -3535 27 -1 1395 -1 1415 0 17 1 18 93 14
2209 -2 1214 -6 2230 -9 2257 -3 28 -9 95 -12 150 l-7 100 61 -120 c108 -210
260 -506 330 -640 37 -71 111 -215 165 -320 54 -104 138 -268 186 -362 49 -95
130 -253 180 -350 50 -98 124 -241 164 -318 89 -172 217 -419 343 -665 110
-215 237 -463 365 -710 50 -96 106 -199 125 -229 76 -121 202 -210 357 -251
68 -18 106 -21 279 -21 111 0 215 3 231 6 177 33 320 122 412 256 17 24 65
112 108 194 43 83 115 222 160 310 45 88 118 230 162 315 44 85 118 227 163
315 45 88 115 223 155 300 40 77 114 221 165 320 51 99 119 230 150 290 32 61
104 200 160 310 56 110 124 241 150 290 26 50 96 185 155 300 59 116 136 264
170 330 34 66 97 188 140 270 42 83 82 155 87 160 7 7 9 7 5 0 -3 -6 -8 -46
-12 -90 -4 -44 -9 -96 -12 -115 -3 -19 -8 -1038 -10 -2265 l-4 -2230 370 1
370 1 1 -111 c2 -226 13 -511 25 -676 3 -36 7 -94 10 -130 5 -80 12 -142 26
-240 15 -100 15 -101 32 -142 13 -32 19 -36 44 -33 15 2 46 11 67 20 33 14 41
14 52 3 12 -11 11 -26 -2 -88 -9 -41 -18 -86 -20 -100 -27 -147 -34 -192 -40
-235 -3 -27 -8 -58 -10 -69 -20 -105 -22 -350 -4 -416 7 -27 25 -57 45 -76
l34 -31 -77 -42 c-347 -189 -797 -389 -1122 -500 -248 -84 -580 -180 -715
-207 -11 -2 -74 -15 -140 -28 -152 -32 -155 -32 -305 -56 -160 -26 -164 -27
-230 -35 -30 -4 -62 -9 -70 -10 -8 -1 -55 -6 -105 -9 -49 -4 -101 -9 -115 -11
-25 -4 -119 -11 -275 -21 -198 -12 -662 -6 -865 11 -30 3 -84 7 -120 10 -36 3
-81 7 -100 10 -19 2 -64 7 -100 10 -98 10 -365 52 -540 86 -430 84 -923 233
-1340 406 -328 136 -723 344 -1052 553 -230 147 -572 394 -673 487 -11 10 -32
27 -46 38 -25 20 -112 95 -218 190 -88 79 -379 372 -461 464 -41 46 -80 89
-85 95 -6 6 -33 38 -60 71 -28 33 -52 62 -55 65 -13 13 -95 115 -175 220 -399
519 -745 1146 -959 1735 -26 72 -51 139 -56 150 -45 102 -170 555 -220 796
-28 133 -28 132 -49 254 -17 95 -25 146 -46 295 -3 24 -10 87 -21 210 -3 30
-7 71 -9 90 -33 297 -22 973 20 1280 2 19 7 58 10 85 8 65 44 313 50 345 3 14
10 52 15 85 53 299 176 735 307 1089 103 281 290 687 420 916 106 185 320 529
343 550 3 3 14 19 24 35 11 17 71 100 135 185 272 364 567 685 942 1025 557
505 1342 984 2084 1273 394 153 927 306 1254 358 18 3 41 7 50 9 9 1 36 6 61
10 25 4 52 9 60 10 14 3 139 21 200 30 24 3 84 11 160 19 19 3 73 7 120 11 47
3 94 8 105 10 11 2 92 7 180 11 88 3 161 7 162 8 5 4 478 -2 578 -8z m3630
-7151 c17 -4 41 -9 55 -12 38 -7 35 -10 -20 -22 -84 -18 -90 -16 -90 25 0 28
3 34 13 27 6 -6 26 -14 42 -18z m51 -123 c-14 -40 -23 -72 -20 -72 3 0 0 -8
-5 -18 -28 -52 -32 -316 -6 -432 20 -93 23 -104 25 -107 2 -2 3 -7 4 -12 0 -5
4 -13 9 -17 4 -4 7 -14 7 -21 0 -8 16 -47 36 -86 95 -190 217 -320 416 -442
131 -81 127 -77 122 -105 -2 -14 -6 -38 -8 -55 -5 -32 -17 -75 -20 -75 -2 0
-30 11 -64 25 -38 15 -81 25 -113 25 -50 0 -54 -2 -108 -59 -52 -54 -122 -113
-162 -136 -10 -5 -61 -36 -114 -67 -53 -32 -98 -58 -101 -58 -2 0 -4 394 -4
875 l0 875 23 0 c12 0 40 9 62 19 22 10 41 17 42 16 2 -1 -8 -34 -21 -73z"/>
</g>
</svg>
